<?xml version="1.0" encoding="utf-8"?>
<!-- Generator: Adobe Illustrator 19.2.1, SVG Export Plug-In . SVG Version: 6.00 Build 0)  -->
<svg version="1.1" id="Layer_1" xmlns="http://www.w3.org/2000/svg" xmlns:xlink="http://www.w3.org/1999/xlink" x="0px" y="0px"
	 viewBox="0 0 170.1 170.1" style="enable-background:new 0 0 170.1 170.1;" xml:space="preserve">
<style type="text/css">
	.st0{fill:none;stroke:#FFFFFF;stroke-width:3;stroke-miterlimit:10;}
</style>
<g>
	<path class="st0" d="M124.3,97.4c0-21.5-17.4-38.9-38.9-38.9S46.5,75.9,46.5,97.4c0,17.8,12,32.9,28.4,37.5v22h21v-22
		C112.3,130.2,124.3,115.2,124.3,97.4z"/>
	<circle class="st0" cx="85.4" cy="28.3" r="15.3"/>
	<line class="st0" x1="138.2" y1="99.3" x2="146.4" y2="99"/>
	<line class="st0" x1="136.4" y1="85.7" x2="144.2" y2="83.2"/>
	<line class="st0" x1="131.2" y1="72.9" x2="138.1" y2="68.5"/>
	<line class="st0" x1="122.8" y1="62" x2="128.3" y2="56"/>
	<line class="st0" x1="111.9" y1="53.6" x2="115.6" y2="46.3"/>
	<line class="st0" x1="59.1" y1="53.5" x2="54.7" y2="46.6"/>
	<line class="st0" x1="48.2" y1="61.9" x2="42.1" y2="56.4"/>
	<line class="st0" x1="39.8" y1="72.8" x2="32.5" y2="69.1"/>
	<line class="st0" x1="34.5" y1="85.5" x2="26.5" y2="83.8"/>
	<line class="st0" x1="32.6" y1="99.2" x2="24.5" y2="99.6"/>
</g>
</svg>
